<svg xmlns="http://www.w3.org/2000/svg" width="746" height="630" viewBox="0 0 746 630"><title>logo</title><g fill="#FF4A00" fill-rule="evenodd"><path fill-opacity=".8" d="M733.52044,50.9488984 C691.987378,163.374203 672.884141,227.412037 676.210728,243.062398 C679.537315,258.71276 702.168375,313.879695 744.103909,408.563202 C700.151886,407.000526 657.308726,410.654638 615.574429,419.525537 C521.672259,439.485059 478.040661,465.116691 438.921857,473.43165 C433.70507,474.540512 430.542245,472.48655 429.433383,467.269762 C424.443502,443.79422 512.769527,397.600998 510.029204,384.708794 C508.920342,379.492006 500.54073,378.546906 484.890368,381.873493 C414.463741,396.843135 355.188882,425.799845 222.160808,454.075835 C206.510446,457.402422 197.021972,451.240535 193.695385,435.590173 L123.837057,106.932579 C120.51047,91.2822176 126.672357,81.7937432 142.322719,78.4671562 C275.350792,50.1911662 334.625652,21.2344564 405.052279,6.26481466 C420.702641,2.93822761 430.191115,9.10011489 433.517702,24.7504765 L441.83417,63.8763805 C525.302765,46.1345829 622.531522,41.8254222 733.52044,50.9488984 Z" transform="translate(-167.000000, -225.000000) translate(167.500000, 225.500000)"/><path d="M510.029204,384.708794 C508.920342,379.492006 500.54073,378.546906 484.890368,381.873493 C414.463741,396.843135 355.188882,425.799845 222.160808,454.075835 C206.510446,457.402422 197.021972,451.240535 193.695385,435.590173 L123.837057,106.932579 C120.51047,91.2822176 126.672357,81.7937432 142.322719,78.4671562 C275.350792,50.1911662 334.625652,21.2344564 405.052279,6.26481466 C420.702641,2.93822761 430.191115,9.10011489 433.517702,24.7504765 L510.029204,384.708794 Z" transform="translate(-167.000000, -225.000000) translate(167.500000, 225.500000)"/><path d="M203.4415,612.883429 C196.872689,620.110215 188.117145,624.886534 177.17487,627.212386 C166.232595,629.538239 156.291303,628.736054 147.350996,624.805833 C144.994538,623.769919 143.280498,621.6634 142.745312,619.145546 L36.0967745,117.403627 C30.2752471,90.0154943 6.7996733,95.0052272 0.97817736,67.6172421 C-4.01170322,44.1416997 16.7232555,7.01944912 44.1113883,1.19792177 C71.4995211,-4.62360557 105.540828,20.8555903 110.530709,44.3311327 C116.352236,71.7192655 92.8766936,76.7091461 98.6982209,104.097279 L205.346754,605.839204 C205.88194,608.357055 205.172885,610.978618 203.4415,612.883429 Z" transform="translate(-167.000000, -225.000000) translate(167.500000, 225.500000)"/></g></svg>