<svg xmlns="http://www.w3.org/2000/svg" xmlns:xlink="http://www.w3.org/1999/xlink" viewBox="0 0 24 19">
	<defs>
		<path id="b" d="M8.33399991,9.28502859 C8.01176266,8.70654686 8.01519845,7.9942053 8.34299991,7.41905944 C9.79141646,7.29749945 10.8867394,6.01524254 10.8213025,4.51779569 C10.7558656,3.02034883 9.55314525,1.8449386 8.09999991,1.85828568 L4.49999988,1.85828568 C3.00883104,1.85828568 1.79999985,3.10518545 1.79999985,4.64331427 C1.79999985,6.18144309 3.00883104,7.42834286 4.49999988,7.42834286 L4.57199988,7.42834286 C4.47230662,8.04296655 4.47230662,8.67040491 4.57199988,9.28502859 L4.49999988,9.28502859 C2.01471854,9.2850285 3.04359187e-16,7.20686224 0,4.64331427 C-3.04359187e-16,2.0797663 2.01471854,0.00160003968 4.49999988,0.00159994611 L8.09999991,0.00159994611 C10.5852813,-0.0650523028 12.6523826,1.95908166 12.717,4.5226297 C12.7816173,7.08617773 10.8192813,9.21837635 8.33399991,9.28502859 Z M9.66599992,3.71497141 C9.98823717,4.29345314 9.98480138,5.0057947 9.65699992,5.58094056 C8.20858337,5.70250055 7.11326047,6.98475746 7.17869733,8.48220431 C7.2441342,9.97965117 8.44685458,11.1550614 9.89999993,11.1417143 L13.5,11.1417143 C14.9911688,11.1417143 16.2,9.89481455 16.2,8.35668573 C16.2,6.81855691 14.9911688,5.57165714 13.5,5.57165714 L13.428,5.57165714 C13.5276932,4.95703345 13.5276932,4.32959509 13.428,3.71497141 L13.5,3.71497141 C15.9852814,3.71497141 18,5.7931377 18,8.35668573 C18,10.9202338 15.9852814,12.9984001 13.5,12.9984001 L9.89999993,12.9984001 C7.41471853,13.0650523 5.3476172,11.0409183 5.28299988,8.4773703 C5.21838257,5.91382227 7.18071853,3.78162365 9.66599992,3.71497141 Z"/>
		<filter id="a" width="150%" height="169.2%" x="-25%" y="-34.6%" filterUnits="objectBoundingBox">
			<feOffset in="SourceAlpha" result="shadowOffsetOuter1"/>
			<feGaussianBlur in="shadowOffsetOuter1" result="shadowBlurOuter1" stdDeviation="1.5"/>
			<feColorMatrix in="shadowBlurOuter1" values="0 0 0 0 0 0 0 0 0 0 0 0 0 0 0 0 0 0 1 0"/>
		</filter>
	</defs>
	<g fill="none" fill-rule="nonzero" transform="translate(-263.000000, -176.000000) translate(266.000000, 179.000000)">
		<use fill="#000" filter="url(#a)" xlink:href="#b"/>
		<use fill="#FFF" fill-rule="evenodd" xlink:href="#b"/>
	</g>
</svg>
