<svg viewBox="0 0 1080 1080" version="1.1" xmlns="http://www.w3.org/2000/svg" xmlns:xlink="http://www.w3.org/1999/xlink">
    <title>Personal logo.</title>
    <g stroke="none" stroke-width="1" fill="none" fill-rule="evenodd">
        <g transform="translate(540, 480) rotate(-12) translate(-540, -480)translate(180, 160)" fill="#FF4A00">
            <path d="M720,192 C656,293.333333 624,352 624,368 C624,384 634.666667,442.666667 656,544 C613.333333,533.333333 570.666667,528 528,528 C432,528 383.992741,544 344,544 C338.666667,544 336,541.333333 336,536 C336,512 432,485.180224 432,472 C432,466.666667 424,464 408,464 C336,464 272,480 136,480 C120,480 112,472 112,456 L112,120 C112,104 120,96 136,96 C272,96 336,80 408,80 C424,80 432,88 432,104 L432,144 C517.333333,144 613.333333,160 720,192 Z" fill-opacity="0.8"></path>
            <path d="M432,472 C432,466.666667 424,464 408,464 C336,464 272,480 136,480 C120,480 112,472 112,456 L112,120 C112,104 120,96 136,96 C272,96 336,80 408,80 C424,80 432,88 432,104 C432,358.120149 432,480.786816 432,472 Z"></path>
            <path d="M84.6701095,631.44652 C76.7426407,637.14884 67.1859375,640 56,640 C44.8140625,640 35.2573593,637.14884 27.3298905,631.44652 L27.3290432,631.447698 C25.2397625,629.945116 24.0008956,627.52919 24.0000005,624.955701 L24,112 L24,112 C24,84 0,83.9998489 0,56 C0,32 28,0 56,0 C84,0 112,32 112,56 C112,84 88,84 88,112 L87.9999995,624.955701 C87.9991044,627.52919 86.7602375,629.945116 84.6709568,631.447698 Z"></path>
        </g>
    </g>
</svg>
